#N canvas 3422 9 492 485 10;
#X floatatom 13 88 5 0 0 0 - - -, f 5;
#X floatatom 52 89 5 0 0 0 - - -, f 5;
#X floatatom 107 85 5 0 0 0 - - -, f 5;
#X floatatom 187 86 5 0 0 0 - - -, f 5;
#X floatatom 278 86 5 0 0 0 - - -, f 5;
#X floatatom 332 87 5 0 0 0 - - -, f 5;
#X obj 24 29 extra/faceOSC;
#X obj 24 59 extra/mond;
#X obj 107 60 extra/kaak;
#X obj 184 60 extra/neus;
#X obj 280 60 extra/wenkbrauwen;
#X obj 292 169 bng 15 250 50 0 empty empty empty 17 7 0 10 -262144
-1 -1;
#X obj 117 267 extra/synth;
#X obj 293 210 bng 15 250 50 0 empty empty empty 17 7 0 10 -262144
-1 -1;
#X floatatom 20 200 5 0 0 0 - - -, f 5;
#X obj 112 359 dac~;
#X obj 291 142 extra/triggerabove 8;
#X text 57 199 frequency;
#X text 311 209 trigger;
#X floatatom 148 212 5 0 0 0 - - -, f 5;
#X obj 21 173 * 200;
#X floatatom 167 304 5 0 0 0 - - -, f 5;
#X obj 117 324 lop~ 5000;
#X connect 1 0 20 0;
#X connect 5 0 16 0;
#X connect 6 0 7 0;
#X connect 6 0 8 0;
#X connect 6 0 9 0;
#X connect 6 0 10 0;
#X connect 7 0 0 0;
#X connect 7 1 1 0;
#X connect 8 0 2 0;
#X connect 9 0 3 0;
#X connect 10 0 4 0;
#X connect 10 1 5 0;
#X connect 11 0 13 0;
#X connect 12 0 22 0;
#X connect 13 0 12 2;
#X connect 14 0 12 0;
#X connect 16 0 11 0;
#X connect 19 0 12 1;
#X connect 20 0 14 0;
#X connect 21 0 22 1;
#X connect 22 0 15 0;
#X connect 22 0 15 1;
