#N canvas 699 45 492 508 10;
#X floatatom 13 88 5 0 0 0 - - -, f 5;
#X floatatom 52 89 5 0 0 0 - - -, f 5;
#X floatatom 107 85 5 0 0 0 - - -, f 5;
#X floatatom 187 86 5 0 0 0 - - -, f 5;
#X floatatom 278 86 5 0 0 0 - - -, f 5;
#X floatatom 332 87 5 0 0 0 - - -, f 5;
#X obj 24 29 extra/faceOSC;
#X obj 24 59 extra/mond;
#X obj 107 60 extra/kaak;
#X obj 184 60 extra/neus;
#X obj 280 60 extra/wenkbrauwen;
#X obj 292 169 bng 15 250 50 0 empty empty empty 17 7 0 10 -262144
-1 -1;
#X obj 117 267 extra/synth;
#X obj 293 210 bng 15 250 50 0 empty empty empty 17 7 0 10 -262144
-1 -1;
#X obj 113 393 dac~;
#X obj 291 142 extra/triggerabove 8;
#X text 311 209 trigger;
#X floatatom 152 213 5 0 0 0 - - -, f 5;
#X floatatom 167 304 5 0 0 0 - - -, f 5;
#X obj 117 324 lop~ 5000;
#X obj 363 241 extra/arduino_in;
#X floatatom 363 267 5 0 0 0 - - -, f 5;
#X obj 401 194 tgl 15 0 empty empty empty 17 7 0 10 -262144 -1 -1 0
1;
#X obj 360 290 mtof;
#X obj 115 361 *~ 0.5;
#X obj 210 347 vsl 15 128 0 127 0 0 empty empty empty 0 -9 0 10 -262144
-1 -1 6550 1;
#X floatatom 252 425 5 0 0 0 - - -, f 5;
#X obj 306 438 / 100;
#X obj 40 125 * 200;
#X floatatom 39 149 5 0 0 0 - - -, f 5;
#X connect 1 0 28 0;
#X connect 5 0 15 0;
#X connect 6 0 7 0;
#X connect 6 0 8 0;
#X connect 6 0 9 0;
#X connect 6 0 10 0;
#X connect 7 0 0 0;
#X connect 7 1 1 0;
#X connect 8 0 2 0;
#X connect 9 0 3 0;
#X connect 10 0 4 0;
#X connect 10 1 5 0;
#X connect 11 0 13 0;
#X connect 12 0 19 0;
#X connect 13 0 12 2;
#X connect 15 0 11 0;
#X connect 17 0 12 1;
#X connect 18 0 19 1;
#X connect 19 0 24 0;
#X connect 20 0 21 0;
#X connect 21 0 23 0;
#X connect 22 0 20 0;
#X connect 24 0 14 0;
#X connect 24 0 14 1;
#X connect 25 0 27 0;
#X connect 27 0 24 1;
#X connect 28 0 29 0;
#X connect 29 0 17 0;
