#N canvas 1873 847 450 300 10;
#X obj 32 60 metro 50;
#X floatatom 32 117 5 0 0 0 - - -, f 5;
#X obj 32 35 tgl 15 0 empty empty empty 17 7 0 10 -262144 -1 -1 0 1
;
#X msg 104 62 open 1;
#X obj 32 94 comport 9600;
#X msg 159 61 devices;
#X obj 32 13 inlet;
#X obj 32 140 outlet;
#X obj 105 36 loadbang;
#X connect 0 0 4 0;
#X connect 1 0 7 0;
#X connect 2 0 0 0;
#X connect 3 0 4 0;
#X connect 4 0 1 0;
#X connect 5 0 4 0;
#X connect 6 0 2 0;
#X connect 8 0 3 0;
