#N canvas 2110 543 450 323 10;
#X obj 43 22 inlet;
#X obj 42 70 OSCroute /width /height;
#X obj 39 139 outlet;
#X obj 95 138 outlet;
#X obj 43 48 OSCroute /mouth;
#X obj 43 94 smooth 1;
#X obj 102 94 smooth 1;
#X connect 0 0 4 0;
#X connect 1 0 5 0;
#X connect 1 1 6 0;
#X connect 4 0 1 0;
#X connect 5 0 2 0;
#X connect 6 0 3 0;
