#N canvas 2110 567 450 300 10;
#X obj 31 27 inlet;
#X obj 230 25 inlet;
#X obj 242 174 line~;
#X obj 230 48 t b b b;
#X obj 241 82 delay 10;
#X obj 28 123 phasor~;
#X obj 28 248 outlet~;
#X obj 28 159 -~ 0.5;
#X obj 27 210 *~;
#X msg 345 142 1 10;
#X obj 121 25 inlet;
#X msg 244 150 0 \$1;
#X text 36 42 frequency;
#X text 138 39 length;
#X text 267 25 trigger;
#X floatatom 112 52 5 0 0 0 - - -, f 5;
#X obj 240 125 f 100;
#X obj 28 94 f;
#X connect 0 0 17 1;
#X connect 1 0 3 0;
#X connect 2 0 8 1;
#X connect 3 0 17 0;
#X connect 3 1 4 0;
#X connect 3 2 9 0;
#X connect 4 0 16 0;
#X connect 5 0 7 0;
#X connect 7 0 8 0;
#X connect 8 0 6 0;
#X connect 9 0 2 0;
#X connect 10 0 15 0;
#X connect 11 0 2 0;
#X connect 15 0 16 1;
#X connect 16 0 11 0;
#X connect 17 0 5 0;
