#N canvas 3550 516 450 323 10;
#X obj 43 22 inlet;
#X obj 44 132 outlet;
#X obj 43 46 > \$1;
#X obj 44 106 onebang 1;
#X obj 43 67 sel 1 0;
#X connect 0 0 2 0;
#X connect 2 0 4 0;
#X connect 3 0 1 0;
#X connect 4 0 3 0;
#X connect 4 1 3 1;
