#N canvas 3487 616 450 323 10;
#X obj 43 22 inlet;
#X obj 48 136 outlet;
#X obj 47 115 smooth 1;
#X obj 43 48 OSCroute /eyebrow;
#X obj 43 74 OSCroute /left /right;
#X obj 116 135 outlet;
#X obj 115 114 smooth 1;
#X connect 0 0 3 0;
#X connect 2 0 1 0;
#X connect 3 0 4 0;
#X connect 4 0 2 0;
#X connect 4 1 6 0;
#X connect 6 0 5 0;
